:SAMPLES-PER-SECOND 30
:FULLY-SPECIFIED
:DEGREES
571
root  -2.8311 40.9695 0.89648 -2.33975 -86.4486 2.23392
RightUpLeg  5.51184 -1.12488 -0.462946
RightLeg  -3.56289 -19.7051 1.33879
RightFoot  -0.847843 -0.188265 1.98331
RightToes  -3.10678e-008 1.75238e-005 3.56266e-009
Spine  -6.78021 2.52957 -2.89171
Spine1  8.97557 2.32098 2.34269
HEad  -8.76554 -9.31052 3.09912
LeftShoulder1  3.03309 -5.07835 -29.3077
LeftArm  -44.6837 11.6709 -51.6869
LeftForeArm  96.2747 -2.43511 8.64059
LeftHand  -0.883239 -2.80446 12.724
RightShoulder  3.28624 6.16088 28.0425
RightArm  -35.1397 7.87169 38.6753
RightForeArm  48.7178 6.56741 1.9239
RightHand  -0.0482569 5.47089 -0.82536
LeftUpLeg  3.59704 0.809784 1.84543
LeftLeg  -2.47204 11.1745 -0.69945
LeftFoot  -0.287226 0.249991 -2.52843
LeftToes  4.76857e-008 1.46588e-008 1.31384e-009
572
root  -2.86209 40.9666 0.847552 -2.70007 -86.0158 2.57175
RightUpLeg  5.65405 -1.13423 -0.399601
RightLeg  -3.62661 -20.1455 1.38416
RightFoot  -0.915489 -0.180894 1.90811
RightToes  -3.10678e-008 1.75238e-005 3.56266e-009
Spine  -6.61534 2.37092 -3.60075
Spine1  9.00304 2.0678 2.95364
HEad  -9.57104 -8.57938 2.72088
LeftShoulder1  2.92842 -4.82789 -29.1109
LeftArm  -42.9172 15.9386 -51.6813
LeftForeArm  89.3738 -5.06706 5.34288
LeftHand  -0.888794 -2.27414 13.6412
RightShoulder  3.31312 6.13652 28.4201
RightArm  -34.8188 6.95329 37.8563
RightForeArm  47.9997 6.19305 2.25322
RightHand  -0.123605 6.02488 -1.59124
LeftUpLeg  3.57877 0.755537 1.84822
LeftLeg  -2.40557 10.8038 -0.598096
LeftFoot  -0.317439 0.255961 -2.61685
LeftToes  4.76857e-008 1.46588e-008 1.31384e-009
573
root  -2.89596 40.9658 0.820818 -2.87543 -85.8195 2.97641
RightUpLeg  5.51956 -1.08024 -0.356706
RightLeg  -3.73945 -20.4025 1.41626
RightFoot  -0.920504 -0.174938 1.83947
RightToes  -3.10678e-008 1.75238e-005 3.56266e-009
Spine  -6.84769 2.38882 -4.32209
Spine1  8.91807 1.96959 3.7242
HEad  -10.0676 -8.83527 2.59771
LeftShoulder1  2.90994 -4.77784 -29.0972
LeftArm  -40.5295 19.8068 -51.5403
LeftForeArm  82.5101 -7.83871 1.75919
LeftHand  -0.854138 -1.70523 14.1272
RightShoulder  3.38471 6.15235 29.1169
RightArm  -35.2843 5.53179 36.4688
RightForeArm  44.7813 5.67423 2.33869
RightHand  -0.164752 5.82274 -2.02962
LeftUpLeg  3.40471 0.706761 1.85077
LeftLeg  -2.50209 10.6918 -0.6017
LeftFoot  -0.289985 0.260501 -2.68517
LeftToes  4.76857e-008 1.46588e-008 1.31384e-009
574
root  -2.94429 40.9659 0.817503 -2.2645 -85.5315 2.44104
RightUpLeg  5.72674 -1.06025 -0.310515
RightLeg  -4.12777 -20.6959 1.58964
RightFoot  -0.879105 -0.170952 1.79723
RightToes  -3.10678e-008 1.75238e-005 3.56266e-009
Spine  -6.82708 2.41131 -4.71793
Spine1  8.59816 1.91651 4.18884
HEad  -10.1481 -9.01849 2.25215
LeftShoulder1  2.78384 -4.50778 -28.6994
LeftArm  -39.1474 22.5792 -52.1209
LeftForeArm  78.3632 -9.92366 -0.493192
LeftHand  -0.874184 -1.57417 14.7118
RightShoulder  3.52363 6.34153 29.8773
RightArm  -36.6921 3.2628 34.4314
RightForeArm  40.4126 5.71988 2.07057
RightHand  -0.168452 5.71431 -2.08179
LeftUpLeg  3.32348 0.745116 1.90718
LeftLeg  -2.42453 10.3294 -0.583336
LeftFoot  -0.363263 0.263308 -2.72844
LeftToes  4.76857e-008 1.46588e-008 1.31384e-009
575
root  -2.97508 40.9663 0.823498 -2.02515 -85.2594 2.36801
RightUpLeg  5.72421 -1.09042 -0.323512
RightLeg  -4.35961 -20.9669 1.73459
RightFoot  -0.871088 -0.171507 1.82156
RightToes  -3.10678e-008 1.75238e-005 3.56266e-009
Spine  -6.52517 2.55555 -5.2603
Spine1  7.75408 1.94365 4.94009
HEad  -10.1242 -9.20006 1.93168
LeftShoulder1  2.6608 -4.20855 -28.4431
LeftArm  -37.9546 24.969 -52.8379
LeftForeArm  75.3254 -11.9834 -2.17448
LeftHand  -0.9141 -1.99463 14.5365
RightShoulder  3.33909 5.93427 29.4567
RightArm  -39.2748 0.509977 33.1936
RightForeArm  33.7335 5.84895 1.09835
RightHand  -0.165821 5.60605 -2.066
LeftUpLeg  3.191 0.825372 1.96805
LeftLeg  -2.49263 9.9909 -0.697637
LeftFoot  -0.341258 0.255431 -2.60722
LeftToes  4.76857e-008 1.46588e-008 1.31384e-009
576
root  -3.00468 40.9663 0.837932 -1.27295 -84.6567 1.90436
RightUpLeg  5.66077 -1.11213 -0.309679
RightLeg  -4.69938 -21.5865 1.9676
RightFoot  -0.798946 -0.167889 1.77758
RightToes  -3.10678e-008 1.75238e-005 3.56266e-009
Spine  -6.07886 2.51742 -5.35528
Spine1  6.63899 1.92572 4.97688
HEad  -9.8203 -9.6341 2.18092
LeftShoulder1  2.50786 -3.85213 -28.0217
LeftArm  -36.469 26.943 -53.3726
LeftForeArm  72.5771 -13.9791 -3.13241
LeftHand  -0.892571 -2.30555 13.6378
RightShoulder  3.08461 5.34859 28.9186
RightArm  -41.4742 -2.71565 31.5692
RightForeArm  25.947 5.88429 0.281501
RightHand  -0.208616 5.47288 -2.54956
LeftUpLeg  2.77074 0.785964 1.97881
LeftLeg  -2.33714 9.42805 -0.667551
LeftFoot  -0.357116 0.247607 -2.48835
LeftToes  4.76857e-008 1.46588e-008 1.31384e-009
577
root  -3.04018 40.9657 0.853068 -0.572174 -83.5876 1.53165
RightUpLeg  5.62689 -1.10851 -0.248915
RightLeg  -5.09929 -22.7531 2.22705
RightFoot  -0.715738 -0.169894 1.81754
RightToes  -3.10678e-008 1.75238e-005 3.56266e-009
Spine  -6.06935 2.1978 -5.85778
Spine1  6.2208 1.54707 5.46267
HEad  -9.93414 -9.78176 2.30814
LeftShoulder1  2.32422 -3.37574 -27.7029
LeftArm  -35.9635 27.978 -54.1409
LeftForeArm  70.0017 -15.2588 -3.25505
LeftHand  -0.821413 -1.97804 13.1165
RightShoulder  2.79986 4.68625 28.2366
RightArm  -43.458 -6.28837 29.7926
RightForeArm  15.9721 7.39414 -0.153914
RightHand  -0.23709 4.69912 -3.00803
LeftUpLeg  2.21071 0.658708 1.96154
LeftLeg  -2.10607 8.43854 -0.559113
LeftFoot  -0.40492 0.244877 -2.45001
LeftToes  4.76857e-008 1.46588e-008 1.31384e-009
578
root  -3.08345 40.961 0.857908 -0.592346 -82.4015 1.65866
RightUpLeg  5.84902 -1.09525 -0.197563
RightLeg  -5.46941 -23.983 2.4295
RightFoot  -0.747733 -0.171784 1.85272
RightToes  -3.10678e-008 1.75238e-005 3.56266e-009
Spine  -5.98424 1.8838 -6.39038
Spine1  6.02527 1.16952 5.92162
HEad  -10.4344 -9.83409 2.60301
LeftShoulder1  2.25611 -3.20598 -27.5372
LeftArm  -36.1535 28.5681 -54.6048
LeftForeArm  68.6477 -15.8649 -3.16416
LeftHand  -0.808749 -1.8681 13.1017
RightShoulder  2.37047 3.69241 26.9544
RightArm  -45.3174 -9.57119 28.5915
RightForeArm  6.22128 9.31413 -0.705304
RightHand  -0.401098 5.18073 -4.69602
LeftUpLeg  1.90077 0.577922 1.92028
LeftLeg  -1.87836 7.33802 -0.462407
LeftFoot  -0.459139 0.245449 -2.46415
LeftToes  4.76857e-008 1.46588e-008 1.31384e-009
579
root  -3.09994 40.9592 0.876341 -0.524841 -81.2491 1.74698
RightUpLeg  5.87444 -1.17863 -0.227412
RightLeg  -5.61615 -25.0467 2.63998
RightFoot  -0.825161 -0.17302 1.87506
RightToes  -3.10678e-008 1.75238e-005 3.56266e-009
Spine  -5.48146 1.3619 -6.75708
Spine1  5.2694 0.613221 6.15914
HEad  -11.1431 -9.40583 2.75388
LeftShoulder1  2.22271 -3.13196 -27.397
LeftArm  -36.0909 29.55 -54.7024
LeftForeArm  67.0582 -16.5207 -3.15553
LeftHand  -0.851492 -2.03393 13.4896
RightShoulder  1.95627 2.69831 25.5261
RightArm  -45.9329 -11.9409 27.4778
RightForeArm  -3.0028 10.9823 -0.542448
RightHand  -0.592472 5.30803 -6.73733
LeftUpLeg  1.53038 0.565664 1.91132
LeftLeg  -1.71257 6.17966 -0.473799
LeftFoot  -0.444667 0.248162 -2.51246
LeftToes  4.76857e-008 1.46588e-008 1.31384e-009
580
root  -3.10534 40.9569 0.891175 -0.391418 -80.4797 1.72797
RightUpLeg  5.88882 -1.12689 -0.180205
RightLeg  -5.75906 -25.8733 2.70821
RightFoot  -0.86405 -0.178747 1.955
RightToes  -3.10678e-008 1.75238e-005 3.56266e-009
Spine  -5.12368 0.65453 -7.06867
Spine1  4.83623 -0.118506 6.28234
HEad  -11.7401 -8.50444 2.86489
LeftShoulder1  2.01951 -2.62252 -26.852
LeftArm  -36.2312 30.2345 -55.0814
LeftForeArm  65.8415 -16.6228 -3.22139
LeftHand  -0.835647 -1.71684 13.8045
RightShoulder  1.64479 1.88709 24.4412
RightArm  -46.662 -12.5103 26.5327
RightForeArm  -5.63158 11.8025 -0.61352
RightHand  -0.640693 5.26889 -7.27751
LeftUpLeg  1.27513 0.526148 1.8871
LeftLeg  -1.62149 5.45008 -0.45355
LeftFoot  -0.458305 0.249749 -2.54395
LeftToes  4.76857e-008 1.46588e-008 1.31384e-009
